<svg width="28" height="35" viewBox="0 0 28 35" fill="none" xmlns="http://www.w3.org/2000/svg">
<path d="M4.46177 28.1533L4.87992 28.2283C4.98276 28.2468 6.01814 28.4256 7.44311 28.4256C9.57543 28.4256 12.5796 28.0251 14.6329 26.0877C18.0584 22.8558 17.3675 16.7346 17.3364 16.4756L17.2858 16.0538L16.8677 15.9788C16.6109 15.9327 10.5402 14.8874 7.1147 18.1195C3.68918 21.3514 4.38007 27.4726 4.41116 27.7316L4.46177 28.1533ZM13.8447 25.2523C11.6656 27.3083 8.0631 27.3572 6.23016 27.2256L11.3744 22.3719L15.1981 23.3641C14.8605 24.0601 14.4196 24.7098 13.8447 25.2523ZM15.6316 22.29L12.3607 21.4412L16.2569 17.7652C16.2719 18.8749 16.1837 20.6247 15.6316 22.29ZM15.4209 16.9749L8.98814 23.0442L8.13599 18.747C10.292 16.9288 13.6267 16.8567 15.4209 16.9749ZM7.1722 19.7921L8.00169 23.9749L5.48965 26.3451C5.47717 24.718 5.69356 21.8412 7.1722 19.7921Z" fill="#64D370"/>
<path d="M23.0859 5.55133C23.0859 4.06871 22.5084 2.67467 21.46 1.62627C20.4122 0.577568 19.0181 0 17.5346 0C17.0724 0 16.613 0.0572745 16.1694 0.170062L16.4525 1.28316C16.8037 1.1938 17.1678 1.14855 17.5346 1.14855C18.7111 1.14855 19.8166 1.60652 20.6477 2.43822C21.4793 3.26985 21.9373 4.37545 21.9373 5.55133V9.92885H16.4243V5.55156C16.4243 2.49052 13.934 0.000229584 10.873 0.000229584C7.81191 0.000229584 5.32162 2.49052 5.32162 5.55156V9.92885H0V31.2536C0 32.8369 1.28806 34.125 2.87138 34.125H24.2344C25.8178 34.125 27.1058 32.8369 27.1058 31.2536V9.92885H23.0859V5.55133ZM6.47017 5.55164C6.47017 3.12391 8.44522 1.14886 10.873 1.14886C13.3007 1.14886 15.2757 3.12391 15.2757 5.55164V9.92892H13.1318V5.55141C13.1318 5.01052 13.2285 4.48372 13.4192 3.98578L12.3466 3.57498C12.1055 4.20454 11.9832 4.86955 11.9832 5.55141V9.92892H6.47017V5.55164ZM20.5974 31.2536C20.5974 32.2036 19.8245 32.9765 18.8745 32.9765H2.87138C1.92137 32.9765 1.14855 32.2036 1.14855 31.2536V11.0774H20.5974V31.2536ZM24.2344 32.9765H22.1632L23.8516 30.0339L25.3189 32.591C25.0227 32.8318 24.6452 32.9765 24.2344 32.9765ZM23.2773 11.0774V14.3316H24.4259V11.0774H25.9573V31.2536C25.9573 31.2982 25.955 31.3422 25.9517 31.3859L24.4259 28.7269V15.863H23.2773V28.7269L21.7421 31.4026C21.7446 31.3532 21.7459 31.3036 21.7459 31.2536V11.0774H23.2773Z" fill="#64D370"/>
</svg>
