<svg width="38" height="38" viewBox="0 0 38 38" fill="none" xmlns="http://www.w3.org/2000/svg">
<path d="M21.4119 1.08054C25.5366 1.08054 29.416 2.5558 32.3377 5.22995C35.2939 7.93547 36.9168 11.5375 36.9168 15.3725C36.9168 16.0058 36.8608 16.7293 36.7596 17.4077V17.4087C36.6625 18.0578 36.0581 18.5057 35.409 18.4087C34.7596 18.3118 34.3112 17.7065 34.408 17.0571C34.491 16.5006 34.5389 15.8877 34.5389 15.3725C34.5389 8.78021 28.6267 3.45847 21.4119 3.45847C14.1973 3.45858 8.28499 8.78028 8.28499 15.3725C8.28524 21.148 13.5761 27.2865 21.4119 27.2866C23.3585 27.2866 25.2346 26.9079 26.9862 26.1606C27.2886 26.0316 27.6315 26.033 27.9324 26.1655L32.9657 28.3842L33.5291 28.6323L33.2977 28.062L31.6033 23.8706C31.3573 23.2619 31.6518 22.5688 32.2606 22.3227C32.869 22.0768 33.5613 22.3706 33.8074 22.979L36.8299 30.4555C37.0112 30.9041 36.9028 31.4176 36.5555 31.7544C36.3291 31.9738 36.0306 32.0902 35.7274 32.0903C35.5658 32.0902 35.4031 32.0567 35.2489 31.9887L27.5291 28.5864L27.4354 28.5444L27.3397 28.5815C26.3854 28.9463 25.4015 29.2192 24.3953 29.3999L24.285 29.4204L24.2264 29.5161C23.2025 31.2 21.7404 32.6279 19.9608 33.6684C17.9742 34.8298 15.6783 35.4513 13.3153 35.4692H13.3074L13.2996 35.4702C13.2614 35.473 13.2356 35.4751 13.2108 35.4751C11.577 35.475 9.99545 35.1929 8.49983 34.6362L8.40413 34.6001L8.31136 34.6411L2.25179 37.313C2.09785 37.3808 1.93493 37.4134 1.77327 37.4135C1.47017 37.4135 1.17149 37.2981 0.945145 37.0786C0.597814 36.7419 0.489582 36.2282 0.670731 35.7798V35.7788L2.77229 30.5805L2.82405 30.4516L2.74202 30.3393C1.32641 28.4119 0.583817 26.1746 0.583817 23.8169C0.583875 20.0451 2.53952 16.5361 5.85237 14.3423L5.95296 14.2758L5.9637 14.1567C6.26938 10.7817 7.84442 7.64789 10.4862 5.22995C13.4079 2.55588 17.2874 1.08059 21.4119 1.08054ZM5.69612 17.5083C3.95905 19.2039 2.96179 21.4458 2.96175 23.8169C2.96175 25.8878 3.70073 27.847 5.09261 29.4799C5.37981 29.817 5.45585 30.2862 5.28987 30.6967L4.20296 33.3852L3.97249 33.9565L4.53499 33.7075L7.90511 32.2221C8.20597 32.0896 8.54816 32.0883 8.85042 32.2173H8.85139C10.2031 32.7939 11.6499 33.0885 13.1512 33.0962V33.0971L13.1629 33.0962C13.2111 33.0942 13.1932 33.0932 13.2108 33.0932C16.1088 33.0932 18.8509 31.9622 20.7703 30.0727L21.1776 29.6714L20.6063 29.645C16.6788 29.4604 13.0458 27.9275 10.3006 25.2856C8.09411 23.162 6.63405 20.4605 6.11702 17.6421L6.03206 17.1801L5.69612 17.5083Z" fill="#020202" stroke="#F5FAFF" stroke-width="0.5"/>
<path d="M21.3404 16.873C22.135 16.873 22.7792 16.2289 22.7792 15.4342C22.7792 14.6396 22.135 13.9955 21.3404 13.9955C20.5458 13.9955 19.9016 14.6396 19.9016 15.4342C19.9016 16.2289 20.5458 16.873 21.3404 16.873Z" fill="#020202"/>
<path d="M27.0974 16.873C27.892 16.873 28.5361 16.2289 28.5361 15.4342C28.5361 14.6396 27.892 13.9955 27.0974 13.9955C26.3027 13.9955 25.6586 14.6396 25.6586 15.4342C25.6586 16.2289 26.3027 16.873 27.0974 16.873Z" fill="#020202"/>
<path d="M15.5855 16.873C16.3801 16.873 17.0243 16.2289 17.0243 15.4342C17.0243 14.6396 16.3801 13.9955 15.5855 13.9955C14.7909 13.9955 14.1467 14.6396 14.1467 15.4342C14.1467 16.2289 14.7909 16.873 15.5855 16.873Z" fill="#020202"/>
</svg>
