<svg width="54" height="37" viewBox="0 0 54 37" fill="none" xmlns="http://www.w3.org/2000/svg">
<path d="M50.6443 18.2548L50.6444 18.2548L53.3564 22.4043C53.4357 22.5257 53.4783 22.6687 53.4783 22.8148V32.2808C53.4783 32.6957 53.1429 33.0314 52.7281 33.0314H49.8624H49.7829L49.7649 33.1088C49.2915 35.1456 47.4646 36.6695 45.2865 36.6695C43.1085 36.6695 41.2821 35.1456 40.8081 33.1088L40.7901 33.0314H40.7107H24.3487H24.2693L24.2513 33.1088C23.7778 35.1456 21.9519 36.6695 19.7729 36.6695C17.5943 36.6695 15.7679 35.1456 15.2945 33.1088L15.2765 33.0314H15.1971H7.65425C7.23984 33.0314 6.90361 32.6956 6.90361 32.2808V31.4414C6.90361 29.7416 7.93067 28.2805 9.39539 27.6344L9.45503 27.6081V27.5429V23.7764V23.6764H9.35503H0.850634C0.435775 23.6764 0.1 23.3406 0.1 22.9258C0.1 22.5109 0.435775 22.1751 0.850634 22.1751H9.35503H9.45503V22.0751V20.3743V20.2743H9.35503H5.95298C5.53857 20.2743 5.20283 19.939 5.20283 19.5242C5.20283 19.1093 5.53865 18.7736 5.95298 18.7736H9.35503H9.45503V18.6736V16.9728V16.8728H9.35503H0.850634C0.435776 16.8728 0.1 16.537 0.1 16.1222C0.1 15.7073 0.435775 15.3715 0.850634 15.3715H7.87323H8.20309L7.92876 15.1883C5.71476 13.7101 4.25292 11.1912 4.25292 8.33602C4.25292 3.795 7.94744 0.1 12.4889 0.1C16.4994 0.1 19.846 2.98418 20.5739 6.78592L20.5895 6.86712H20.6722H33.802C36.2111 6.86712 38.1703 8.8263 38.1703 11.2354V15.2715V15.3715H38.2703H45.2841C47.4625 15.3715 49.4654 16.4497 50.6443 18.2548ZM11.0558 23.6764H10.9558V23.7764V27.1789V27.2789H11.0558C11.0623 27.2789 11.0681 27.2784 11.0716 27.278H36.5695H36.6695V27.178V11.2354C36.6695 9.65458 35.3833 8.3679 33.8025 8.3679H20.8186H20.7202L20.7187 8.46632C20.6744 11.2672 19.2289 13.7328 17.0491 15.1884L16.7748 15.3715H17.1047H22.1116C22.526 15.3715 22.8623 15.7073 22.8623 16.1222C22.8623 16.537 22.526 16.8728 22.1116 16.8728H11.0558H10.9558V16.9728V18.6736V18.7736H11.0558H17.0093C17.4236 18.7736 17.7594 19.1093 17.7594 19.5242C17.7594 19.939 17.4237 20.2743 17.0093 20.2743H11.0558H10.9558V20.3743V22.0751V22.1751H11.0558H12.7566C13.1715 22.1751 13.5072 22.5109 13.5072 22.9258C13.5072 23.3406 13.1715 23.6764 12.7566 23.6764H11.0558ZM36.5695 31.5302H36.6695V31.4302V28.8787V28.7787H36.5695H23.2173H22.9882L23.1439 28.9467C23.7713 29.6236 24.196 30.4866 24.327 31.4437L24.3388 31.5302H24.4261H36.5695ZM16.4018 28.9467L16.5574 28.7787H16.3285H11.0665C9.60262 28.7787 8.41047 29.9674 8.4044 31.4297L8.40398 31.5302H8.5044H15.1202H15.2075L15.2193 31.4437C15.3497 30.4866 15.7749 29.6236 16.4018 28.9467ZM51.8775 31.5302H51.9775V31.4302V23.0679V23.0381L51.9612 23.0132L49.3884 19.0753L49.3047 19.13L49.3884 19.0753C48.4869 17.6957 46.9519 16.8728 45.2841 16.8728H38.2703H38.1703V16.9728V31.4302V31.5302H38.2703H40.6334H40.7206L40.7324 31.4437C41.0392 29.2017 42.9622 27.4668 45.2865 27.4668C47.6109 27.4668 49.5344 29.2017 49.8406 31.4437L49.8525 31.5302H49.9397H51.8775ZM12.4889 1.60078C8.77521 1.60078 5.75371 4.62229 5.75371 8.33602C5.75371 12.0498 8.77521 15.0713 12.4889 15.0713C16.2032 15.0713 19.2242 12.0498 19.2242 8.33602C19.2242 4.62229 16.2032 1.60078 12.4889 1.60078ZM16.6723 32.0681C16.6723 33.7779 18.0636 35.1687 19.7729 35.1687C21.4826 35.1687 22.8734 33.7779 22.8734 32.0681C22.8734 30.3589 21.4827 28.9676 19.7729 28.9676C18.0636 28.9676 16.6723 30.3588 16.6723 32.0681ZM42.186 32.0681C42.186 33.7779 43.5773 35.1687 45.2865 35.1687C46.9963 35.1687 48.3871 33.7779 48.3871 32.0681C48.3871 30.3589 46.9963 28.9676 45.2865 28.9676C43.5772 28.9676 42.186 30.3588 42.186 32.0681Z" fill="#64D370" stroke="#E5E5E5" stroke-width="0.2"/>
<path d="M12.0062 8.09125L11.987 8.11757L10.2511 10.4987L10.2511 10.4987C10.0068 10.8337 10.0802 11.3025 10.4151 11.5463L10.4152 11.5464C10.5494 11.6444 10.7038 11.6911 10.857 11.6911C11.0887 11.6911 11.3169 11.5842 11.4637 11.3824L11.4638 11.3823L13.3631 8.77793L12.0062 8.09125ZM12.0062 8.09125V8.05867M12.0062 8.09125V8.05867M12.0062 8.05867V4.61525C12.0062 4.20043 12.3419 3.8651 12.7563 3.8651C13.1712 3.8651 13.5069 4.20047 13.5069 4.61525V8.33605M12.0062 8.05867L13.5069 8.33605M13.5069 8.33605C13.5069 8.49533 13.4563 8.6499 13.3631 8.77787L13.5069 8.33605Z" fill="#64D370" stroke="#E5E5E5" stroke-width="0.2"/>
<path d="M50.2923 23.3175L50.2924 23.3176C50.5384 23.7466 50.538 24.2603 50.2883 24.6902C50.0385 25.1203 49.594 25.3772 49.0964 25.3772H43.3726C42.9577 25.3772 42.622 25.0414 42.622 24.6266V18.6736C42.622 18.2587 42.9577 17.9229 43.3726 17.9229H44.9994C46.3631 17.9229 47.6307 18.659 48.3064 19.8415L50.2923 23.3175ZM44.1232 23.7764V23.8764H44.2232H48.7105H48.8828L48.7973 23.7268L47.0031 20.5866C46.5935 19.8692 45.826 19.4242 44.9994 19.4242H44.2232H44.1232V19.5242V23.7764Z" fill="#64D370" stroke="#E5E5E5" stroke-width="0.2"/>
</svg>
