<svg width="36" height="36" viewBox="0 0 36 36" fill="none" xmlns="http://www.w3.org/2000/svg">
<path d="M32.1897 24.2812L24.1382 29.0514L21.0714 27.1134H24.9272C25.5174 27.1134 26.0834 26.8789 26.5007 26.4616C26.918 26.0443 27.1525 25.4783 27.1525 24.8881C27.1525 24.2979 26.918 23.7319 26.5007 23.3146C26.0834 22.8973 25.5174 22.6628 24.9272 22.6628H18.304C17.5422 22.6584 16.7862 22.7956 16.0746 23.0674L10.9241 25.406V24.8881C10.9241 24.7271 10.8602 24.5728 10.7464 24.459C10.6325 24.3452 10.4782 24.2812 10.3172 24.2812H5.86666C5.7057 24.2812 5.55134 24.3452 5.43752 24.459C5.32371 24.5728 5.25977 24.7271 5.25977 24.8881V35.003C5.25977 35.164 5.32371 35.3183 5.43752 35.4322C5.55134 35.546 5.7057 35.6099 5.86666 35.6099H10.3172C10.4782 35.6099 10.6325 35.546 10.7464 35.4322C10.8602 35.3183 10.9241 35.164 10.9241 35.003V34.3961H23.503C24.2992 34.3975 25.0753 34.1468 25.7202 33.68L34.3219 27.518C34.6815 27.208 34.916 26.7777 34.9815 26.3075C35.047 25.8373 34.9391 25.3593 34.6779 24.9628C34.4167 24.5663 34.0202 24.2785 33.5623 24.1531C33.1044 24.0276 32.6165 24.0732 32.1897 24.2812ZM9.71033 34.3961H6.47356V25.495H9.71033V34.3961ZM33.6179 26.551L25.0122 32.6968C24.5729 33.0137 24.0447 33.1836 23.503 33.1823H10.9241V26.7371L16.5399 24.2003C17.1031 23.985 17.7011 23.8752 18.304 23.8766H24.9272C25.1955 23.8766 25.4527 23.9832 25.6424 24.1729C25.8321 24.3626 25.9387 24.6198 25.9387 24.8881C25.9387 25.1564 25.8321 25.4136 25.6424 25.6033C25.4527 25.793 25.1955 25.8996 24.9272 25.8996H18.9756C18.8439 25.8994 18.7157 25.9421 18.6104 26.0212C18.5051 26.1003 18.4283 26.2116 18.3918 26.3381C18.3552 26.4646 18.3609 26.5996 18.4078 26.7227C18.4547 26.8458 18.5404 26.9502 18.6519 27.0203L23.8024 30.2571C23.898 30.3158 24.0079 30.3468 24.12 30.3468C24.2322 30.3468 24.3421 30.3158 24.4376 30.2571L32.8128 25.2846C32.9768 25.1885 33.1715 25.1592 33.3566 25.2027C33.5416 25.2462 33.7029 25.3592 33.8069 25.5184C33.9109 25.6775 33.9497 25.8705 33.9153 26.0575C33.8809 26.2445 33.7758 26.411 33.622 26.5227L33.6179 26.551Z" fill="#64D370"/>
<path d="M34.9976 19.4259H33.5815C33.4793 15.7068 32.051 12.1467 29.5544 9.38824C27.0578 6.62975 23.6574 4.85455 19.9668 4.38304C20.3053 4.00464 20.5269 3.53636 20.6051 3.03475C20.6832 2.53313 20.6145 2.01961 20.4073 1.55618C20.2 1.09275 19.863 0.699216 19.4371 0.423077C19.0111 0.146938 18.5142 0 18.0066 0C17.4989 0 17.0021 0.146938 16.5761 0.423077C16.1501 0.699216 15.8131 1.09275 15.6059 1.55618C15.3986 2.01961 15.3299 2.53313 15.408 3.03475C15.4862 3.53636 15.7079 4.00464 16.0463 4.38304C12.3547 4.85286 8.95286 6.62744 6.45529 9.38619C3.95772 12.1449 2.52912 15.706 2.42758 19.4259H0.606895C0.445936 19.4259 0.29157 19.4899 0.177755 19.6037C0.0639404 19.7175 0 19.8719 0 20.0328C0 20.1938 0.0639404 20.3482 0.177755 20.462C0.29157 20.5758 0.445936 20.6397 0.606895 20.6397H34.9976C35.1586 20.6397 35.3129 20.5758 35.4267 20.462C35.5406 20.3482 35.6045 20.1938 35.6045 20.0328C35.6045 19.8719 35.5406 19.7175 35.4267 19.6037C35.3129 19.4899 35.1586 19.4259 34.9976 19.4259ZM18.0045 1.2191C18.2846 1.2191 18.5584 1.30215 18.7913 1.45775C19.0242 1.61336 19.2057 1.83452 19.3128 2.09327C19.42 2.35203 19.4481 2.63676 19.3934 2.91145C19.3388 3.18615 19.2039 3.43847 19.0059 3.63651C18.8078 3.83456 18.5555 3.96943 18.2808 4.02407C18.0061 4.07871 17.7214 4.05066 17.4626 3.94348C17.2039 3.8363 16.9827 3.6548 16.8271 3.42192C16.6715 3.18905 16.5885 2.91526 16.5885 2.63519C16.5885 2.25962 16.7377 1.89943 17.0032 1.63386C17.2688 1.36829 17.629 1.2191 18.0045 1.2191ZM18.0045 5.46736C21.7439 5.46895 25.3355 6.92755 28.0171 9.53363C30.6987 12.1397 32.2593 15.6882 32.3677 19.4259H3.64137C3.74977 15.6882 5.31037 12.1397 7.99199 9.53363C10.6736 6.92755 14.2652 5.46895 18.0045 5.46736Z" fill="#64D370"/>
<path d="M14.7426 8.34396C13.0754 8.81604 11.5311 9.64594 10.2175 10.7758C8.9038 11.9057 7.85227 13.3085 7.13614 14.8863C7.09587 14.9598 7.07127 15.0409 7.06388 15.1244C7.0565 15.2079 7.06649 15.292 7.09324 15.3715C7.11998 15.4509 7.1629 15.524 7.21927 15.586C7.27565 15.648 7.34427 15.6977 7.42081 15.7319C7.49734 15.7661 7.58013 15.7841 7.66396 15.7847C7.74778 15.7853 7.83083 15.7686 7.90786 15.7355C7.98489 15.7024 8.05423 15.6538 8.11151 15.5926C8.1688 15.5314 8.21278 15.4589 8.24069 15.3799C8.88541 13.9645 9.8307 12.7064 11.0108 11.6933C12.191 10.6802 13.5776 9.93624 15.0743 9.51325C15.1511 9.49146 15.2228 9.45477 15.2854 9.40526C15.348 9.35576 15.4003 9.2944 15.4391 9.22471C15.478 9.15502 15.5028 9.07835 15.5121 8.99908C15.5213 8.91981 15.5149 8.8395 15.4931 8.76272C15.4713 8.68594 15.4346 8.61421 15.3851 8.55162C15.3356 8.48902 15.2742 8.43679 15.2045 8.3979C15.1349 8.35902 15.0582 8.33424 14.9789 8.32498C14.8996 8.31573 14.8193 8.32218 14.7426 8.34396Z" fill="#64D370"/>
</svg>
