<svg width="37" height="37" viewBox="0 0 37 37" fill="none" xmlns="http://www.w3.org/2000/svg">
<path d="M18.2812 36.3125C8.33864 36.3125 0.25 28.2239 0.25 18.2812C0.25 8.33864 8.33864 0.25 18.2812 0.25C28.2239 0.25 36.3125 8.33864 36.3125 18.2812C36.3125 28.2239 28.2239 36.3125 18.2812 36.3125ZM18.2812 2.03516C9.32251 2.03516 2.03516 9.32251 2.03516 18.2812C2.03516 27.24 9.32251 34.5273 18.2812 34.5273C27.24 34.5273 34.5273 27.24 34.5273 18.2812C34.5273 9.32251 27.24 2.03516 18.2812 2.03516Z" fill="#64D370" stroke="#E5E5E5" stroke-width="0.5"/>
<path d="M25.6491 27.6722L25.6485 27.6716L17.6505 19.6736C17.4825 19.5056 17.3887 19.2782 17.3887 19.0431V8.37881C17.3887 7.88617 17.7886 7.48623 18.2812 7.48623C18.7739 7.48623 19.1738 7.88617 19.1738 8.37881V18.5691V18.6727L19.2471 18.7459L26.9101 26.4089C27.2588 26.7576 27.2588 27.3229 26.9101 27.6716L26.9095 27.6722C26.736 27.8468 26.5085 27.9337 26.2793 27.9337C26.0501 27.9337 25.8226 27.8468 25.6491 27.6722Z" fill="#64D370" stroke="#E5E5E5" stroke-width="0.5"/>
</svg>
