<svg width="35" height="35" viewBox="0 0 35 35" fill="none" xmlns="http://www.w3.org/2000/svg">
<path d="M13.0726 14.2193C13.0719 15.061 13.1703 15.8998 13.3656 16.7183M13.0726 14.2193L13.1226 14.2193H13.0726C13.0726 14.2193 13.0726 14.2193 13.0726 14.2193ZM13.0726 14.2193C13.0726 8.42211 17.6916 3.70404 23.3715 3.70404C24.3764 3.70404 25.5465 3.74756 26.565 4.07437M13.3656 16.7183L26.565 4.07437M13.3656 16.7183C12.7107 16.4897 12.0218 16.3727 11.3277 16.3725C7.91793 16.3725 5.14314 19.1124 5.14314 22.4814V22.4814C5.14343 22.9252 5.19345 23.3676 5.29222 23.8001C4.21197 23.9864 3.21664 24.5063 2.44641 25.2875C1.48958 26.2491 0.953191 27.5509 0.954887 28.9074C0.954887 28.9074 0.954887 28.9075 0.954887 28.9075L1.00489 28.9074M13.3656 16.7183L26.9837 24.0291C26.999 24.041 27.0142 24.0531 27.0294 24.0651M26.565 4.07437C26.6837 4.11239 26.7876 4.18638 26.8623 4.28609C26.9371 4.3858 26.979 4.5063 26.9823 4.63089C26.9855 4.75548 26.9499 4.878 26.8804 4.98147C26.811 5.08493 26.711 5.16422 26.5945 5.20837M26.565 4.07437L26.5945 5.20837M26.5945 5.20837C24.0668 6.16796 22.3002 8.74915 22.3002 11.4843C22.3002 15.1129 25.1822 18.063 28.7221 18.063C30.0485 18.063 31.1113 17.768 32.0703 17.1364C32.1751 17.0674 32.2988 17.0329 32.4242 17.0378C32.5496 17.0427 32.6702 17.0867 32.7693 17.1637C32.8684 17.2406 32.9409 17.3467 32.9766 17.4669C33.0124 17.5872 33.0096 17.7156 32.9687 17.8342C31.9618 20.7504 29.7893 23.0046 27.0294 24.0651M26.5945 5.20837L27.0294 24.0651M1.00489 28.9074C1.00489 31.7421 3.33947 34.0483 6.20903 34.0483H23.4264C26.5527 34.0483 29.0959 31.5362 29.0959 28.4485C29.0945 27.5985 28.8984 26.7601 28.5227 25.9977C28.1557 25.2528 27.6268 24.5996 26.975 24.0859C26.9932 24.079 27.0113 24.0721 27.0294 24.0651M1.00489 28.9074C1.00319 27.5641 1.53438 26.2749 2.48194 25.3227L1.00489 28.9074ZM18.3078 19.5858C17.8236 19.5854 17.3421 19.6586 16.88 19.8029C16.4117 18.8624 15.71 18.0575 14.8419 17.4651C14.4643 16.4248 14.2722 15.3262 14.2742 14.2194V14.2193C14.2742 9.08266 18.3564 4.90565 23.3715 4.90565C23.7504 4.90565 24.1519 4.91203 24.5533 4.93896C22.4583 6.39563 21.0986 8.8806 21.0986 11.4843C21.0986 15.7734 24.5175 19.2646 28.7221 19.2646C29.6315 19.2646 30.4426 19.1446 31.1913 18.8937C30.0075 21.0568 28.0252 22.6323 25.6544 23.2457C24.7699 22.8758 23.8071 22.7321 22.8533 22.8274C22.2126 20.9188 20.3845 19.5858 18.3078 19.5858ZM18.3078 19.5858L18.3078 19.6358M18.3078 19.5858C18.3078 19.5858 18.3078 19.5858 18.3078 19.5858V19.6358M18.3078 19.6358C17.8144 19.6354 17.3239 19.7122 16.8542 19.8636C16.3874 18.9094 15.6794 18.0938 14.8004 17.4974L18.3078 19.6358ZM2.1565 28.9074L2.1565 28.9074C2.1555 27.8673 2.56708 26.8693 3.30096 26.1322L3.30111 26.1321C4.03917 25.3846 5.038 24.9519 6.08811 24.9248L6.0883 24.9248C6.18318 24.922 6.27604 24.8968 6.35928 24.8511C6.44251 24.8055 6.51376 24.7408 6.56717 24.6623C6.62057 24.5839 6.65463 24.4939 6.66655 24.3997C6.67846 24.3055 6.66789 24.2099 6.63571 24.1206L6.63565 24.1204C6.44439 23.5951 6.34589 23.0405 6.34454 22.4814C6.34454 19.7764 8.57932 17.5742 11.3275 17.5742C13.3986 17.5742 15.2746 18.8628 15.9959 20.7793C16.0249 20.8563 16.0693 20.9265 16.1266 20.9856C16.1838 21.0448 16.2526 21.0915 16.3287 21.1229C16.4047 21.1544 16.4864 21.1698 16.5687 21.1684C16.651 21.167 16.7321 21.1486 16.807 21.1146L16.8071 21.1145C17.278 20.8988 17.7899 20.7872 18.3079 20.7872C20.0116 20.7872 21.4901 21.9789 21.8243 23.6192C21.856 23.7748 21.948 23.9115 22.0802 23.9995C22.2124 24.0874 22.374 24.1195 22.5298 24.0886L22.5298 24.0886C22.8251 24.03 23.1255 24.0003 23.4265 24C25.9183 24.0002 27.9443 25.9965 27.9443 28.4485C27.9443 30.9004 25.9183 32.8967 23.4264 32.8967H6.20903C3.97375 32.8967 2.1565 31.1063 2.1565 28.9074ZM16.7863 21.0691C17.2637 20.8504 17.7827 20.7372 18.3079 20.7372C20.0348 20.7372 21.5342 21.9451 21.8733 23.6092C21.9024 23.7519 21.9867 23.8772 22.1079 23.9578C22.2291 24.0385 22.3773 24.0679 22.5201 24.0396L16.7863 21.0691Z" fill="#64D370" stroke="#64D370" stroke-width="0.1"/>
<path d="M29.0457 12.8999L29.6473 11.9976L30.2491 12.9002L30.2492 12.9004C30.338 13.0321 30.4753 13.1232 30.6311 13.1539C30.7869 13.1846 30.9485 13.1524 31.0806 13.0643C31.2127 12.9762 31.3046 12.8394 31.3361 12.6838C31.3677 12.5282 31.3363 12.3664 31.2489 12.2338L31.2488 12.2336L30.5835 11.2357L31.4897 10.9336L31.4902 10.9335C31.6399 10.8819 31.7632 10.7734 31.8333 10.6314C31.9034 10.4895 31.9146 10.3256 31.8646 10.1754C31.8145 10.0252 31.7072 9.90082 31.5659 9.82933C31.4246 9.75784 31.2609 9.74499 31.1102 9.79358L31.1102 9.79358L31.1097 9.79373L30.2481 10.0809V9.26207C30.2481 9.10272 30.1848 8.94991 30.0722 8.83723C29.9595 8.72456 29.8067 8.66126 29.6473 8.66126C29.488 8.66126 29.3352 8.72456 29.2225 8.83723C29.1098 8.94991 29.0465 9.10272 29.0465 9.26207V10.0809L28.1851 9.79374C28.1101 9.76795 28.0308 9.75727 27.9516 9.7623C27.8724 9.76734 27.7949 9.78804 27.7237 9.8232C27.6526 9.85835 27.589 9.90727 27.5369 9.96712C27.4847 10.027 27.4449 10.0966 27.4198 10.1719C27.3947 10.2472 27.3848 10.3268 27.3906 10.4059C27.3964 10.4851 27.4179 10.5624 27.4537 10.6332C27.4896 10.704 27.5391 10.7671 27.5995 10.8186C27.6598 10.8702 27.7297 10.9093 27.8051 10.9336C27.8052 10.9337 27.8053 10.9337 27.8054 10.9337L28.7111 11.2356L28.046 12.2333C28.046 12.2333 28.0459 12.2334 28.0459 12.2334C28.0017 12.299 27.9708 12.3727 27.9552 12.4503C27.9395 12.5279 27.9393 12.6078 27.9546 12.6855C27.9699 12.7632 28.0004 12.837 28.0444 12.9029C28.0884 12.9687 28.1449 13.0252 28.2108 13.0691C28.2766 13.1131 28.3505 13.1435 28.4282 13.1588C28.5059 13.1741 28.5858 13.1738 28.6634 13.1581C28.741 13.1424 28.8147 13.1115 28.8803 13.0672C28.9459 13.0229 29.0021 12.9661 29.0456 12.9C29.0457 12.9 29.0457 12.8999 29.0457 12.8999Z" fill="#64D370" stroke="#64D370" stroke-width="0.1"/>
<path d="M4.80968 17.1906L4.14456 16.1929L5.05077 15.8908L5.05124 15.8907C5.20093 15.8391 5.32423 15.7306 5.39433 15.5886C5.46443 15.4467 5.47567 15.2828 5.4256 15.1326C5.37553 14.9824 5.2682 14.858 5.12694 14.7865C4.98568 14.7151 4.82191 14.7022 4.67123 14.7508L4.67123 14.7508L4.67077 14.751L3.80916 15.0381V14.2193C3.80916 14.0599 3.74586 13.9071 3.63319 13.7945C3.52051 13.6818 3.3677 13.6185 3.20835 13.6185C3.04901 13.6185 2.89619 13.6818 2.78352 13.7945C2.67085 13.9071 2.60755 14.0599 2.60755 14.2193V15.0381L1.74617 14.751C1.67117 14.7252 1.59181 14.7145 1.51266 14.7195C1.43342 14.7246 1.35597 14.7453 1.28478 14.7804C1.21359 14.8156 1.15008 14.8645 1.09791 14.9243C1.04574 14.9842 1.00595 15.0538 0.980839 15.1291C0.955729 15.2044 0.945797 15.284 0.951616 15.3632C0.957436 15.4423 0.978892 15.5196 1.01474 15.5904C1.0506 15.6613 1.10013 15.7243 1.16049 15.7759C1.22079 15.8274 1.2907 15.8665 1.36618 15.8909C1.36625 15.8909 1.36633 15.8909 1.3664 15.8909L2.27215 16.1928L1.60702 17.1905C1.60699 17.1906 1.60697 17.1906 1.60694 17.1907C1.56271 17.2563 1.53188 17.3299 1.51621 17.4075C1.50053 17.4851 1.50034 17.565 1.51566 17.6427C1.53097 17.7204 1.56148 17.7943 1.60544 17.8601C1.6494 17.9259 1.70594 17.9825 1.77181 18.0264C1.83768 18.0703 1.91158 18.1008 1.98926 18.116C2.06695 18.1313 2.14688 18.131 2.22447 18.1153C2.30206 18.0996 2.37578 18.0687 2.44139 18.0244C2.50695 17.9801 2.56312 17.9233 2.60668 17.8572C2.60671 17.8572 2.60673 17.8572 2.60676 17.8571L3.20835 16.9548L3.80994 17.8572C3.80998 17.8572 3.81001 17.8573 3.81004 17.8573C3.8536 17.9234 3.90976 17.9802 3.97532 18.0244C4.04093 18.0688 4.11464 18.0997 4.19223 18.1154C4.26982 18.1311 4.34976 18.1314 4.42744 18.1161C4.50512 18.1008 4.57902 18.0704 4.64489 18.0264C4.71076 17.9825 4.7673 17.926 4.81126 17.8602C4.85522 17.7943 4.88574 17.7204 4.90105 17.6428C4.91636 17.5651 4.91617 17.4852 4.9005 17.4076C4.88482 17.33 4.85399 17.2563 4.80976 17.1907C4.80973 17.1907 4.80971 17.1906 4.80968 17.1906Z" fill="#64D370" stroke="#64D370" stroke-width="0.1"/>
<path d="M5.91129 6.29055L5.91129 6.29054L6.51303 5.38794L7.11476 6.29054L7.11491 6.29077C7.20371 6.42241 7.341 6.51355 7.49679 6.54426C7.65258 6.57498 7.81419 6.54277 7.94631 6.45468C8.07842 6.36659 8.17029 6.22979 8.20183 6.07416C8.23338 5.91854 8.20203 5.75676 8.11465 5.62417L8.11451 5.62395L7.44923 4.62604L8.35544 4.32397L8.35591 4.32381C8.5056 4.27227 8.6289 4.16372 8.699 4.02176C8.76911 3.87981 8.78034 3.71592 8.73027 3.56573C8.6802 3.41553 8.57287 3.29117 8.43161 3.21968C8.29035 3.14819 8.12658 3.13534 7.9759 3.18394L7.9759 3.18393L7.97544 3.18409L7.11383 3.47123V2.65242C7.11383 2.49308 7.05053 2.34026 6.93786 2.22759C6.82519 2.11491 6.67237 2.05162 6.51303 2.05162C6.35368 2.05162 6.20087 2.11491 6.08819 2.22759C5.97552 2.34026 5.91222 2.49308 5.91222 2.65242V3.47122L5.05062 3.18402L5.05062 3.18402L5.05015 3.18387C4.89947 3.13527 4.7357 3.14812 4.59444 3.21961C4.45318 3.29111 4.34585 3.41546 4.29578 3.56566C4.24571 3.71585 4.25695 3.87974 4.32705 4.0217C4.39715 4.16365 4.52045 4.2722 4.67014 4.32375L4.67061 4.3239L5.57682 4.62597L4.91155 5.62395C4.91155 5.62395 4.91154 5.62395 4.91154 5.62396C4.82315 5.75653 4.79104 5.91879 4.82228 6.07503C4.85352 6.23128 4.94555 6.36872 5.07812 6.45712C5.21069 6.54551 5.37295 6.57762 5.5292 6.54638C5.68545 6.51515 5.82289 6.42312 5.91129 6.29055Z" fill="#64D370" stroke="#64D370" stroke-width="0.1"/>
<path d="M32.4014 4.35484C32.7332 4.35484 33.0022 4.08585 33.0022 3.75404C33.0022 3.42222 32.7332 3.15323 32.4014 3.15323C32.0696 3.15323 31.8006 3.42222 31.8006 3.75404C31.8006 4.08585 32.0696 4.35484 32.4014 4.35484Z" fill="#64D370" stroke="#64D370" stroke-width="0.1"/>
<path d="M9.81789 12.6169C10.1497 12.6169 10.4187 12.3479 10.4187 12.0161C10.4187 11.6843 10.1497 11.4153 9.81789 11.4153C9.48608 11.4153 9.21709 11.6843 9.21709 12.0161C9.21709 12.3479 9.48608 12.6169 9.81789 12.6169Z" fill="#64D370" stroke="#64D370" stroke-width="0.1"/>
<path d="M18.0801 2.15161C18.4119 2.15161 18.6809 1.88262 18.6809 1.5508C18.6809 1.21899 18.4119 0.95 18.0801 0.95C17.7483 0.95 17.4793 1.21899 17.4793 1.5508C17.4793 1.88262 17.7483 2.15161 18.0801 2.15161Z" fill="#64D370" stroke="#64D370" stroke-width="0.1"/>
<path d="M33.5025 23.633C33.8343 23.633 34.1033 23.364 34.1033 23.0322C34.1033 22.7004 33.8343 22.4314 33.5025 22.4314C33.1706 22.4314 32.9017 22.7004 32.9017 23.0322C32.9017 23.364 33.1706 23.633 33.5025 23.633Z" fill="#64D370" stroke="#64D370" stroke-width="0.1"/>
</svg>
