<svg width="37" height="37" viewBox="0 0 37 37" fill="none" xmlns="http://www.w3.org/2000/svg">
<path d="M33.9579 7.87788H33.8655L33.9161 7.95524C36.0744 11.2557 37.1081 15.1943 36.8379 19.167C36.5392 23.5593 34.6583 27.6947 31.5417 30.8114C28.0514 34.3016 23.3982 36.1564 18.6553 36.1564C16.3646 36.1564 14.0533 35.7239 11.8413 34.834L11.8227 34.8804L11.8413 34.834C11.5011 34.6972 11.3363 34.3104 11.4732 33.9702C11.6101 33.6299 11.9968 33.4653 12.337 33.6021C18.6339 36.1354 25.8037 34.6713 30.6027 29.8724C36.0445 24.4306 37.0521 15.9408 33.2609 9.42044L33.1677 9.26011V9.44557V10.3315C33.1677 10.6982 32.8704 10.9954 32.5037 10.9954C32.137 10.9954 31.8398 10.6982 31.8398 10.3315V7.21394C31.8398 6.84725 32.137 6.55 32.5037 6.55H35.6213C35.988 6.55 36.2852 6.84725 36.2852 7.21394C36.2852 7.58063 35.988 7.87788 35.6213 7.87788H33.9579Z" fill="#64D370" stroke="#E5E5E5" stroke-width="0.1"/>
<path d="M3.76474 26.9421L3.85768 27.0979V26.9165V25.9004C3.85768 25.5338 4.15492 25.2365 4.52162 25.2365C4.88831 25.2365 5.18555 25.5338 5.18549 25.9004V29.0834C5.18549 29.4501 4.88824 29.7473 4.52155 29.7473H1.33859C0.971898 29.7473 0.674653 29.4501 0.674653 29.0834C0.674653 28.7167 0.971898 28.4195 1.33859 28.4195H3.03527H3.12841L3.07694 28.3418C0.876022 25.022 -0.180589 21.0461 0.0921772 17.0352C0.390925 12.6429 2.27184 8.5075 5.3885 5.39077C7.97919 2.80007 11.2431 1.06737 14.8274 0.379882C18.3253 -0.291041 21.9101 0.0656759 25.1948 1.41133L25.2137 1.36506L25.1948 1.41133C25.534 1.55029 25.6964 1.93803 25.5575 2.27738C25.4184 2.61659 25.0308 2.7791 24.6914 2.64001L24.6724 2.68628L24.6914 2.64001C18.3678 0.0495516 11.1594 1.49787 6.32744 6.32978C0.840866 11.8164 -0.13747 20.4011 3.76474 26.9421Z" fill="#64D370" stroke="#E5E5E5" stroke-width="0.1"/>
<path d="M16.7234 15.3028C16.5997 15.364 16.5054 15.4718 16.4612 15.6025C16.4171 15.7331 16.4266 15.876 16.4877 15.9997L18.8472 20.7701C18.9083 20.8938 19.0161 20.9881 19.1468 21.0322C19.2775 21.0764 19.4203 21.0669 19.544 21.0057C19.6677 20.9446 19.762 20.8368 19.8061 20.7061C19.8503 20.5754 19.8408 20.4326 19.7796 20.3089L17.4202 15.5385C17.3591 15.4148 17.2513 15.3205 17.1206 15.2763C16.9899 15.2321 16.847 15.2417 16.7234 15.3028Z" fill="#64D370" stroke="#64D370" stroke-width="0.2"/>
<path d="M21.7889 19.3156L19.4295 14.5452C19.3684 14.4215 19.2606 14.3272 19.1299 14.283C18.9992 14.2388 18.8563 14.2484 18.7327 14.3095C18.609 14.3707 18.5147 14.4785 18.4705 14.6091C18.4263 14.7398 18.4359 14.8827 18.497 15.0064L20.8564 19.7768C20.9176 19.9005 21.0254 19.9947 21.1561 20.0389C21.2867 20.0831 21.4296 20.0736 21.5533 20.0124C21.6769 19.9513 21.7712 19.8435 21.8154 19.7128C21.8596 19.5821 21.8501 19.4392 21.7889 19.3156Z" fill="#64D370" stroke="#64D370" stroke-width="0.2"/>
<path d="M28.1393 9.41881L28.1397 9.42098C28.1455 9.45828 28.147 9.4961 28.1443 9.53373C28.1451 9.56364 28.1433 9.59356 28.1389 9.62314C28.1387 9.64584 28.137 9.66852 28.1338 9.691L28.1321 9.70303L28.1275 9.7143L28.1151 9.74489C28.0436 9.92518 26.338 14.1173 23.175 17.0636L24.2504 19.2379C24.6838 20.0754 24.8397 21.029 24.6957 21.9609L24.6953 21.9632L24.6953 21.9632L24.5338 22.8665C24.4326 23.5725 24.5524 24.2924 24.877 24.9274L24.8776 24.9286L26.6347 28.4813C26.6958 28.605 26.7054 28.7479 26.6612 28.8786C26.617 29.0092 26.5227 29.117 26.399 29.1782C26.2754 29.2393 26.1325 29.2489 26.0018 29.2047C25.8711 29.1605 25.7634 29.0662 25.7022 28.9425L23.9454 25.3905C23.5159 24.5554 23.3618 23.6058 23.5052 22.6777L23.5055 22.6753L23.5056 22.6754L23.667 21.772C23.7689 21.0625 23.6473 20.3387 23.3191 19.7014L23.3183 19.6999L20.5057 14.0131C20.4445 13.8894 20.435 13.7465 20.4792 13.6159C20.5234 13.4852 20.6177 13.3774 20.7413 13.3162C20.865 13.2551 21.0079 13.2455 21.1386 13.2897C21.2692 13.3339 21.377 13.4282 21.4382 13.5519L22.6925 16.088C24.9031 13.9286 26.3562 11.0966 26.9151 9.9081C25.4202 9.57596 21.364 8.85834 17.8805 9.83741C18.1352 10.925 18.3059 12.0306 18.3911 13.1444L18.3911 13.1447C18.4012 13.2823 18.3563 13.4183 18.2661 13.5228C18.1759 13.6272 18.0479 13.6916 17.9103 13.7017C17.7727 13.7118 17.6367 13.6668 17.5323 13.5766C17.428 13.4866 17.3637 13.3589 17.3534 13.2216C17.1986 11.4374 16.8356 9.67767 16.2721 7.97836L11.5288 21.9932C12.5926 21.8231 14.5175 21.3017 15.8272 19.7176L14.4799 16.9934C14.4187 16.8697 14.4092 16.7268 14.4534 16.5962C14.4976 16.4655 14.5919 16.3577 14.7155 16.2965C14.8392 16.2354 14.9821 16.2258 15.1128 16.27C15.2434 16.3142 15.3512 16.4085 15.4124 16.5322L18.225 22.219L18.2258 22.2205L18.2258 22.2205C18.533 22.8683 19.0344 23.4042 19.6602 23.7537L20.4762 24.1737L20.4783 24.1747L20.4782 24.1748C21.303 24.6239 21.9642 25.3228 22.3671 26.1711L24.1239 29.7231C24.1851 29.8468 24.1946 29.9897 24.1504 30.1203C24.1062 30.251 24.0119 30.3588 23.8883 30.42C23.7646 30.4811 23.6217 30.4907 23.4911 30.4465C23.3604 30.4023 23.2526 30.308 23.1914 30.1843L21.4343 26.6316L21.4337 26.6304C21.1261 25.9869 20.6265 25.4546 20.0037 25.1068L19.1825 24.6767L19.1811 24.6759C18.3563 24.2267 17.6951 23.5278 17.2922 22.6795L16.3259 20.7259C15.7368 21.3441 15.0415 21.8523 14.2728 22.226C14.2727 22.2261 14.2726 22.2261 14.2726 22.2261L14.2288 22.1362C13.1485 22.6645 11.9714 22.9659 10.7701 23.0219L28.1393 9.41881ZM28.1393 9.41881C28.1271 9.34986 28.0961 9.28567 28.0497 9.2333C28.0315 9.20767 28.011 9.1838 27.9883 9.162L27.9885 9.16179L27.9827 9.15697C27.958 9.13662 27.9316 9.11863 27.9036 9.10323C27.8855 9.08954 27.8664 9.07711 27.8465 9.06603L27.8385 9.06157L27.8299 9.05864L27.7961 9.04721L27.7962 9.04681L27.7872 9.04467C27.7781 9.0425 27.7621 9.03844 27.7394 9.03268C27.1488 8.88313 22.0538 7.59298 17.6134 8.82969C17.3734 7.93827 17.0785 7.0625 16.7304 6.20739L16.7306 6.20729L16.7274 6.20076L16.7274 6.20075L16.7274 6.20074L16.7274 6.20074L16.7274 6.20073L16.7274 6.20072L16.7274 6.20072L16.7274 6.20071L16.7274 6.2007L16.7274 6.20069L16.7274 6.20069L16.7274 6.20068L16.7274 6.20067L16.7274 6.20066L16.7274 6.20065L16.7273 6.20065L16.7273 6.20064L16.7273 6.20063L16.7273 6.20062L16.7273 6.20062L16.7273 6.20061L16.7273 6.2006L16.7273 6.20059L16.7273 6.20058L16.7273 6.20057L16.7273 6.20056L16.7273 6.20055L16.7273 6.20054L16.7273 6.20053L16.7273 6.20052L16.7273 6.20051L16.7273 6.2005L16.7273 6.20049L16.7273 6.20048L16.7273 6.20046L16.7273 6.20046L16.7273 6.20045L16.7272 6.20044L16.7272 6.20044L16.7272 6.20043L16.7272 6.20042L16.7272 6.20042L16.7272 6.20041L16.7272 6.2004L16.7272 6.20039L16.7272 6.20039L16.7272 6.20038L16.7272 6.20037L16.7272 6.20036L16.7272 6.20036L16.7272 6.20035L16.7272 6.20034L16.7272 6.20033L16.7272 6.20032L16.7272 6.20032L16.7272 6.20031L16.7272 6.2003L16.7272 6.20029L16.7272 6.20028L16.7272 6.20027L16.7272 6.20026L16.7272 6.20025L16.7272 6.20024L16.7271 6.20024L16.7271 6.20023L16.7271 6.20022L16.7271 6.20021L16.7271 6.2002L16.7271 6.20019L16.7271 6.20018L16.7271 6.20017L16.7271 6.20016L16.7271 6.20015L16.7271 6.20014L16.7271 6.20012L16.7271 6.20011L16.7271 6.2001L16.7271 6.20009L16.7271 6.20008L16.7271 6.20007L16.7271 6.20006L16.7271 6.20005L16.727 6.20004L16.727 6.20002L16.727 6.20001L16.727 6.2L16.727 6.19999L16.727 6.19998L16.727 6.19996L16.727 6.19995L16.727 6.19994L16.727 6.19993L16.727 6.19991L16.727 6.1999L16.727 6.19989L16.727 6.19987L16.727 6.19986L16.727 6.19985L16.7269 6.19983L16.7269 6.19982L16.7269 6.19981L16.7269 6.19979L16.7269 6.19978L16.7269 6.19976L16.7269 6.19975L16.7269 6.19973L16.7269 6.19972L16.7269 6.1997L16.7269 6.19969L16.7269 6.19967L16.7269 6.19966L16.7269 6.19964L16.7268 6.19963L16.7268 6.19961L16.7268 6.1996L16.7268 6.19958L16.7268 6.19956L16.7268 6.19955L16.7268 6.19953L16.7268 6.19951L16.7268 6.1995L16.7268 6.19948L16.7268 6.19946L16.7268 6.19945L16.7267 6.19943L16.7267 6.19941L16.7267 6.19939L16.7267 6.19937L16.7267 6.19936L16.7267 6.19934L16.7267 6.19932L16.7267 6.1993L16.7267 6.19928L16.7267 6.19926L16.7267 6.19924L16.7266 6.19923L16.7266 6.19921L16.7266 6.19919L16.7266 6.19917L16.7266 6.19915L16.7266 6.19913L16.7266 6.19911L16.7266 6.19909L16.7266 6.19907L16.7266 6.19905L16.7265 6.19903L16.7265 6.199L16.7265 6.19898L16.7265 6.19896L16.7265 6.19894L16.7265 6.19892L16.7265 6.1989L16.7265 6.19887L16.7265 6.19885L16.7265 6.19883L16.7264 6.19881L16.7264 6.19879L16.7264 6.19876L16.7264 6.19874L16.7264 6.19872L16.7264 6.19869L16.7264 6.19867L16.7264 6.19865L16.7263 6.19862L16.7263 6.1986L16.7263 6.19857L16.7263 6.19855L16.7263 6.19852L16.7263 6.1985L16.7263 6.19847L16.7263 6.19845L16.7263 6.19842L16.7262 6.1984L16.7262 6.19837L16.7262 6.19835L16.7262 6.19832L16.7262 6.19829L16.7262 6.19827L16.7262 6.19824L16.7261 6.19821L16.7261 6.19819L16.7261 6.19816L16.7261 6.19813L16.7261 6.1981L16.7261 6.19808L16.7261 6.19805L16.7261 6.19802L16.726 6.19799L16.726 6.19796L16.726 6.19793L16.726 6.19791L16.726 6.19788L16.726 6.19785L16.726 6.19782L16.7259 6.19779L16.7259 6.19776L16.7259 6.19773L16.7259 6.1977L16.7259 6.19767L16.7259 6.19764L16.7258 6.1976L16.7258 6.19757L16.7258 6.19754L16.7258 6.19751L16.7258 6.19748L16.7258 6.19745L16.7258 6.19741L16.7257 6.19738L16.7257 6.19735L16.7257 6.19732L16.7257 6.19728L16.7257 6.19725L16.7257 6.19722L16.7256 6.19718L16.7256 6.19715L16.7256 6.19711L16.7256 6.19708L16.7256 6.19705L16.7256 6.19701L16.7255 6.19698L16.7255 6.19694L16.7255 6.1969L16.7255 6.19687L16.7255 6.19683L16.7254 6.1968L16.7254 6.19676L16.7254 6.19672L16.7254 6.19669L16.7254 6.19665L16.7254 6.19661L16.7253 6.19658L16.7253 6.19654L16.7253 6.1965L16.7253 6.19646L16.7253 6.19642L16.7252 6.19639L16.7252 6.19635L16.7252 6.19631L16.7252 6.19627L16.7252 6.19623L16.7251 6.19619L16.7251 6.19615L16.7251 6.19611L16.7251 6.19607L16.7251 6.19603L16.725 6.19599L16.725 6.19595L16.725 6.1959L16.725 6.19586L16.725 6.19582L16.7249 6.19578L16.7249 6.19574L16.7249 6.19569L16.7249 6.19565L16.7249 6.19561L16.7248 6.19556L16.7248 6.19552L16.7248 6.19548L16.7248 6.19543L16.7248 6.19539L16.7247 6.19534L16.7247 6.1953L16.7247 6.19526L16.7247 6.19521L16.7246 6.19516L16.7246 6.19512L16.7246 6.19507L16.7246 6.19503L16.7245 6.19498L16.7245 6.19493L16.7245 6.19489L16.7245 6.19484L16.7245 6.19479L16.7244 6.19474L16.7244 6.1947L16.7244 6.19465L16.7244 6.1946L16.7243 6.19455L16.7243 6.1945L16.7243 6.19445L16.7243 6.1944L16.7242 6.19435L16.7242 6.1943L16.7242 6.19425L16.7242 6.1942L16.7241 6.19415L16.7241 6.1941L16.7241 6.19405L16.7241 6.194L16.724 6.19395L16.724 6.19389L16.724 6.19384L16.724 6.19379L16.7239 6.19374L16.7239 6.19368L16.7239 6.19363L16.7239 6.19357L16.7238 6.19352L16.7238 6.19347L16.7238 6.19341L16.7237 6.19336L16.7237 6.1933L16.7237 6.19325L16.7237 6.19319L16.7236 6.19313L16.7236 6.19308L16.7236 6.19302L16.7236 6.19297L16.7235 6.19291L16.7235 6.19285L16.7235 6.19279L16.7234 6.19274L16.7234 6.19268L16.7234 6.19262L16.7234 6.19256L16.7233 6.1925L16.7233 6.19244L16.7233 6.19238L16.7232 6.19232L16.7232 6.19226L16.7232 6.1922L16.7231 6.19214L16.7231 6.19208L16.7231 6.19202L16.7231 6.19196L16.723 6.1919L16.723 6.19183L16.723 6.19177L16.7229 6.19171L16.7229 6.19165L16.7229 6.19158L16.7228 6.19152L16.7228 6.19146L16.7228 6.19139L16.7227 6.19133L16.7227 6.19126L16.7227 6.1912L16.7226 6.19113L16.7226 6.19107L16.7226 6.191L16.7225 6.19093L16.7225 6.19087L16.7225 6.1908L16.7224 6.19073L16.7224 6.19067L16.7224 6.1906L16.7223 6.19053L16.7223 6.19046L16.7223 6.19039L16.7222 6.19032L16.7222 6.19025L16.7222 6.19019L16.7221 6.19012L16.7221 6.19005L16.7221 6.18997L16.722 6.1899L16.722 6.18983L16.722 6.18976L16.7219 6.18969L16.7219 6.18962L16.7219 6.18955L16.7218 6.18947L16.7218 6.1894L16.7218 6.18933L16.7217 6.18925L16.7217 6.18918L16.7216 6.1891L16.7216 6.18903L16.7216 6.18896L16.7215 6.18888L16.7215 6.1888L16.7215 6.18873L16.7214 6.18865L16.7214 6.18858L16.7213 6.1885L16.7213 6.18842L16.7213 6.18835L16.7212 6.18827L16.7212 6.18819L16.7212 6.18811L16.7211 6.18803L16.7211 6.18795L16.721 6.18787L16.721 6.18779L16.721 6.18771L16.7209 6.18763L16.7209 6.18755L16.7208 6.18747L16.7208 6.18739L16.7208 6.18731L16.7207 6.18723L16.7207 6.18714L16.7206 6.18706L16.7206 6.18698L16.7205 6.1869L16.7205 6.18681L16.7205 6.18673L16.7204 6.18664L16.7204 6.18656L16.7203 6.18647L16.7203 6.18639L16.7203 6.1863L16.7202 6.18622L16.7202 6.18613L16.7201 6.18604L16.7201 6.18596L16.72 6.18587L16.72 6.18578L16.72 6.18569L16.7199 6.18561L16.7199 6.18552L16.7198 6.18543L16.7198 6.18534L16.7197 6.18526L16.7197 6.18517L16.7197 6.18508L16.7196 6.185L16.7196 6.18491L16.7195 6.18482L16.7195 6.18474L16.7194 6.18465L16.7194 6.18457L16.7194 6.18449L16.7193 6.1844L16.7193 6.18432L16.7192 6.18423L16.7192 6.18415L16.7192 6.18407L16.7191 6.18398L16.7191 6.1839L16.719 6.18382L16.719 6.18374L16.7189 6.18366L16.7189 6.18357L16.7189 6.18349L16.7188 6.18341L16.7188 6.18333L16.7187 6.18325L16.7187 6.18317L16.7187 6.18309L16.7186 6.18301L16.7186 6.18293L16.7185 6.18285L16.7185 6.18277L16.7185 6.18269L16.7184 6.18262L16.7184 6.18254L16.7184 6.18246L16.7183 6.18238L16.7183 6.18231L16.7182 6.18223L16.7182 6.18215L16.7182 6.18207L16.7181 6.182L16.7181 6.18192L16.7181 6.18185L16.718 6.18177L16.718 6.1817L16.7179 6.18162L16.7179 6.18155L16.7179 6.18147L16.7178 6.1814L16.7178 6.18132L16.7178 6.18125L16.7177 6.18117L16.7177 6.1811L16.7176 6.18103L16.7176 6.18095L16.7176 6.18088L16.7175 6.18081L16.7175 6.18074L16.7175 6.18067L16.7174 6.18059L16.7174 6.18052L16.7174 6.18045L16.7173 6.18038L16.7173 6.18031L16.7173 6.18024L16.7172 6.18017L16.7172 6.1801L16.7172 6.18003L16.7171 6.17996L16.7171 6.17989L16.717 6.17982L16.717 6.17975L16.717 6.17968L16.7169 6.17961L16.7169 6.17954L16.7169 6.17947L16.7168 6.17941L16.7168 6.17934L16.7168 6.17927L16.7167 6.1792L16.7167 6.17914L16.7167 6.17907L16.7166 6.179L16.7166 6.17894L16.7166 6.17887L16.7165 6.1788L16.7165 6.17874L16.7165 6.17867L16.7164 6.17861L16.7164 6.17854L16.7164 6.17848L16.7164 6.17841L16.7163 6.17835L16.7163 6.17828L16.7163 6.17822L16.7162 6.17815L16.7162 6.17809L16.7162 6.17803L16.7161 6.17796L16.7161 6.1779L16.7161 6.17784L16.716 6.17777L16.716 6.17771L16.716 6.17765L16.7159 6.17759L16.7159 6.17752L16.7159 6.17746L16.7159 6.1774L16.7158 6.17734L16.7158 6.17728L16.7158 6.17721L16.7157 6.17715L16.7157 6.17709L16.7157 6.17703L16.7156 6.17697L16.7156 6.17691L16.7156 6.17685L16.7156 6.17679L16.7155 6.17673L16.7155 6.17667L16.7155 6.17661L16.7154 6.17655L16.7154 6.17649L16.7154 6.17644L16.7153 6.17638L16.7153 6.17632L16.7153 6.17626L16.7153 6.1762L16.7152 6.17614L16.7152 6.17609L16.7152 6.17603L16.7151 6.17597L16.7151 6.17591L16.7151 6.17586L16.7151 6.1758L16.715 6.17574L16.715 6.17568L16.715 6.17563L16.7149 6.17557L16.7149 6.17551L16.7149 6.17546L16.7149 6.1754L16.7148 6.17535L16.7148 6.17529L16.7148 6.17524L16.7148 6.17518L16.7147 6.17513L16.7147 6.17507L16.7147 6.17502L16.7146 6.17496L16.7146 6.17491L16.7146 6.17485L16.7146 6.1748L16.7145 6.17474L16.7145 6.17469L16.7145 6.17464L16.7145 6.17458L16.7144 6.17453L16.7144 6.17447L16.7144 6.17442L16.7144 6.17437L16.7143 6.17432L16.7143 6.17426L16.7143 6.17421L16.7142 6.17416L16.7142 6.1741L16.7142 6.17405L16.7142 6.174L16.7141 6.17395L16.7141 6.1739L16.7141 6.17384L16.7141 6.17379L16.714 6.17374L16.714 6.17369L16.714 6.17364L16.714 6.17359L16.7139 6.17354L16.7139 6.17349L16.7139 6.17343L16.7139 6.17338L16.7138 6.17333L16.7138 6.17328L16.7138 6.17323L16.7138 6.17318L16.7137 6.17313L16.7137 6.17308L16.7137 6.17303L16.7137 6.17298L16.7136 6.17293L16.7136 6.17288L16.7136 6.17283L16.7136 6.17279L16.7135 6.17274L16.7135 6.17269L16.7135 6.17264L16.7135 6.17259L16.7134 6.17254L16.7134 6.17249L16.7134 6.17244L16.7134 6.17239L16.7134 6.17235L16.7133 6.1723L16.7133 6.17225L16.7133 6.1722L16.7133 6.17215L16.7132 6.17211L16.7132 6.17206L16.7132 6.17201L16.7132 6.17196L16.7131 6.17192L16.7131 6.17187L16.7131 6.17182L16.7131 6.17178L16.713 6.17173L16.713 6.17168L16.713 6.17163L16.713 6.17159L16.713 6.17154L16.7129 6.17149L16.7129 6.17145L16.7129 6.1714L16.7129 6.17136L16.7128 6.17131L16.7128 6.17126L16.7128 6.17122L16.7128 6.17117L16.7127 6.17112L16.7127 6.17108L16.7127 6.17103L16.7127 6.17099L16.7127 6.17094L16.7126 6.1709L16.7126 6.17085L16.7126 6.17081L16.7126 6.17076L16.7125 6.17072L16.7125 6.17067L16.7125 6.17063L16.7125 6.17058L16.7125 6.17054L16.7124 6.17049L16.7124 6.17045L16.7124 6.1704L16.7124 6.17036L16.7123 6.17031L16.7123 6.17027L16.7123 6.17022L16.7123 6.17018L16.7123 6.17013L16.7122 6.17009L16.7122 6.17005L16.7122 6.17L16.7122 6.16996L16.7121 6.16991L16.7121 6.16987L16.7121 6.16983L16.7121 6.16978L16.7121 6.16974L16.712 6.16969L16.712 6.16965L16.712 6.16961L16.712 6.16956L16.712 6.16952L16.7119 6.16948L16.7119 6.16943L16.7119 6.16939L16.7119 6.16935L16.7118 6.1693L16.7118 6.16926L16.7118 6.16922L16.7118 6.16917L16.7118 6.16913L16.7117 6.16909L16.7117 6.16904L16.7117 6.169L16.7117 6.16896L16.7117 6.16891L16.7116 6.16887L16.7116 6.16883L16.7116 6.16878L16.7116 6.16874L16.7115 6.1687L16.7115 6.16866L16.7115 6.16861L16.7115 6.16857L16.7115 6.16853L16.7114 6.16849L16.7114 6.16844L16.7114 6.1684L16.7114 6.16836L16.7114 6.16831L16.7113 6.16827L16.7113 6.16823L16.7113 6.16819L16.7113 6.16814L16.7113 6.1681L16.7112 6.16806L16.7112 6.16802L16.7112 6.16797L16.7112 6.16793L16.7111 6.16789L16.7111 6.16785L16.7111 6.16781L16.7111 6.16776L16.7111 6.16772L16.711 6.16768L16.711 6.16764L16.711 6.16759L16.711 6.16755L16.711 6.16751L16.7109 6.16747L16.7109 6.16742L16.7109 6.16738L16.7109 6.16734L16.7109 6.1673L16.7108 6.16726L16.7108 6.16721L16.7108 6.16717L16.7108 6.16713L16.7108 6.16709L16.7107 6.16704L16.7107 6.167L16.7107 6.16696L16.7107 6.16692L16.7106 6.16687L16.7106 6.16683L16.7106 6.16679L16.7106 6.16675L16.7106 6.1667L16.7105 6.16666L16.7105 6.16662L16.7105 6.16658L16.7105 6.16654L16.7105 6.16649L16.7104 6.16645L16.7104 6.16641L16.7104 6.16637L16.7104 6.16632L16.7104 6.16628L16.7103 6.16624L16.7103 6.1662L16.7103 6.16615L16.7103 6.16611L16.7102 6.16607L16.7102 6.16602L16.7102 6.16598L16.7102 6.16594L16.7102 6.1659L16.7101 6.16585L16.7101 6.16581L16.7101 6.16577L16.7101 6.16573L16.7101 6.16568L16.71 6.16564L16.71 6.1656L16.71 6.16555L16.71 6.16551L16.71 6.16547L16.7099 6.16542L16.7099 6.16538L16.7099 6.16534L16.7099 6.16529L16.7098 6.16525L16.7098 6.16521L16.7098 6.16517L16.7098 6.16512L16.7098 6.16508L16.7097 6.16503L16.7097 6.16499L16.7097 6.16495L16.7097 6.1649L16.7097 6.16486L16.7096 6.16482L16.7096 6.16477L16.7096 6.16473L16.7096 6.16469L16.7095 6.16464L16.7095 6.1646L16.7095 6.16455L16.7095 6.16451L16.7095 6.16446L16.7094 6.16442L16.7094 6.16438L16.7094 6.16433L16.7094 6.16429L16.7093 6.16424L16.7093 6.1642L16.7093 6.16415L16.7093 6.16411L16.7093 6.16406L16.7092 6.16402L16.7092 6.16398L16.7092 6.16393L16.7092 6.16389L16.7091 6.16384L16.7091 6.16379L16.7091 6.16375L16.7091 6.1637L16.7091 6.16366L16.709 6.16361L16.709 6.16357L16.709 6.16352L16.709 6.16348L16.7089 6.16343L16.7089 6.16339L16.7089 6.16334L16.7089 6.16329L16.7089 6.16325L16.7088 6.1632L16.7088 6.16316L16.7088 6.16311L16.7088 6.16306L16.7087 6.16302L16.7087 6.16297L16.7087 6.16292L16.7087 6.16288L16.7086 6.16283L16.7086 6.16278L16.7086 6.16274L16.7086 6.16269L16.7086 6.16264L16.7085 6.16259L16.7085 6.16255L16.7085 6.1625L16.7085 6.16245L16.7084 6.1624L16.7084 6.16236L16.7084 6.16231L16.7084 6.16226L16.7083 6.16221L16.7083 6.16216L16.7083 6.16212L16.7083 6.16207L16.7082 6.16202L16.7082 6.16197L16.7082 6.16192L16.7082 6.16187L16.7082 6.16185L28.1393 9.41881ZM10.7943 23.1214L10.7957 23.1207L16.6685 6.0825L16.6641 6.07532L16.6586 6.06897C16.6333 6.03997 16.6049 6.01394 16.5738 5.99138L16.5652 5.97391L16.5407 5.95885C16.5005 5.93412 16.4571 5.91507 16.4118 5.90224L16.4118 5.90217L16.408 5.90126C16.3664 5.89121 16.3237 5.88634 16.2809 5.88675L16.258 5.88697L16.2393 5.89622C16.2034 5.90005 16.1679 5.90753 16.1335 5.91856L16.1264 5.92084L16.1197 5.92416L16.0167 5.97507L16.0166 5.97481L16.01 5.97873C14.8074 6.69288 13.6696 7.51078 12.6094 8.42309C10.9533 9.83743 8.77331 12.0998 7.85466 14.8227C7.06065 17.1708 7.65708 19.1763 8.47714 20.613C9.26497 21.9933 10.2618 22.8539 10.4425 23.002L10.4526 23.0224L10.4729 23.037C10.5002 23.0565 10.5293 23.0733 10.5598 23.0871L10.5597 23.0873L10.5646 23.0892L10.6034 23.1044L10.603 23.1052L10.616 23.1084L10.6836 23.125L10.6908 23.1267L10.6982 23.1274L10.7408 23.1314L10.769 23.134L10.7943 23.1214ZM18.2914 13.152C18.2042 12.0116 18.0269 10.8799 17.7612 9.76749L18.2914 13.152ZM10.2582 12.4293C11.7986 10.2591 13.9438 8.57762 15.2809 7.65144L12.2817 16.5206L10.2582 12.4293ZM10.5431 21.6682C9.56114 20.6559 7.76594 18.2634 8.82464 15.1322C9.02763 14.5444 9.28635 13.9776 9.59722 13.4395L11.8117 17.9168L10.5431 21.6682Z" fill="#64D370" stroke="#64D370" stroke-width="0.2"/>
</svg>
